<svg width="1000" height="1000" viewBox="0 0 1000 1000" fill="none" xmlns="http://www.w3.org/2000/svg">
<ellipse cx="487.5" cy="949" rx="387.5" ry="16" fill="#D4E2F2"/>
<rect x="723.252" y="217.264" width="35" height="32" transform="rotate(-54 723.252 217.264)" fill="#C9CBCD"/>
<path d="M773 202.5L746 186.5L738.5 197L769.5 208L773 202.5Z" fill="#485287" stroke="#485287"/>
<rect x="730.22" y="179.997" width="64" height="64" rx="8" transform="rotate(-54 730.22 179.997)" fill="#5AB279"/>
<path opacity="0.25" d="M792 149H756C760.645 142.846 765.697 131.635 771 134C775.484 136 785.032 142.846 792 149Z" fill="white" stroke="white"/>
<rect x="256.635" y="189.063" width="35" height="32" transform="rotate(52 256.635 189.063)" fill="#C9CBCD"/>
<path d="M262.5 197L231 209L255 186.5L262.5 197Z" fill="#485287" stroke="#485287"/>
<path d="M224.129 133.925C227.61 131.205 232.638 131.822 235.358 135.304L264.91 173.129C267.63 176.61 267.013 181.638 263.531 184.358L225.706 213.91C222.225 216.63 217.197 216.013 214.477 212.531L184.925 174.706C182.205 171.225 182.822 166.197 186.304 163.477L224.129 133.925Z" fill="#5AB279"/>
<path opacity="0.25" d="M243 150H208C214.5 144 225 135 229 134.5C234 134.5 239 143.5 243 150Z" fill="white" stroke="white"/>
<circle cx="500" cy="546" r="400" fill="#485287"/>
<ellipse cx="501.5" cy="547" rx="373.5" ry="375" fill="#292F36"/>
<circle cx="500" cy="546" r="350" fill="white"/>
<path opacity="0.05" d="M500 547L332.5 698.5" stroke="black" stroke-width="40" stroke-linecap="round"/>
<path d="M309 687L500 546" stroke="#83C59B" stroke-width="40" stroke-linecap="round"/>
<path d="M470.5 571L293.5 699C294.47 700.455 297.5 703 299.767 704.144C303 706 307 706.5 307 706.5H311C314.5 706.5 319.5 703.5 319.5 703.5C319.5 703.5 321.509 702.185 325 699.5L484 582L470.5 571Z" fill="#5AB279"/>
<path d="M500 546V256" stroke="#485287" stroke-width="25" stroke-linecap="round"/>
<path d="M512 500V255.5C512 252.5 510.5 249 507.82 247C504.82 244.5 502.5 244 500.5 244L500 499.814L512 500Z" fill="black" stroke="black"/>
<circle cx="500" cy="546" r="50" fill="#485287"/>
<path opacity="0.25" d="M381.5 527.5L304 528C304 528 310.248 516.986 317 511.5C325 505 332.155 503.5 343 503.5C354.5 503.5 361.211 506.323 369 513C376 519 381.5 527.5 381.5 527.5Z" fill="white" stroke="white"/>
<path opacity="0.25" d="M539.5 527L462 527.5C462 527.5 468.248 516.486 475 511C483 504.5 490.155 503 501 503C512.5 503 519.211 505.823 527 512.5C534 518.5 539.5 527 539.5 527Z" fill="white" stroke="white"/>
<rect x="470" y="153" width="35" height="58" transform="rotate(-90 470 153)" fill="#C9CBCD"/>
<rect x="420" y="118" width="64" height="160" rx="8" transform="rotate(-90 420 118)" fill="#5AB279"/>
<path d="M528 118H470V124H528V118Z" fill="#485287"/>
<path opacity="0.25" d="M572.807 57H427.193C427.065 57 426.936 57.0252 426.819 57.0742C422.564 58.8486 422.854 61.3817 422.973 64.0004C422.998 64.5521 423.448 65 424 65H576C576.552 65 577.002 64.5521 577.028 64.0004C577.147 61.3817 577.436 58.8485 573.182 57.0742C573.064 57.0252 572.935 57 572.807 57Z" fill="white" stroke="white"/>
</svg>
