<svg width="1000" height="1000" viewBox="0 0 1000 1000" fill="none" xmlns="http://www.w3.org/2000/svg">
<ellipse cx="487.5" cy="949" rx="387.5" ry="16" fill="#D4E2F2"/>
<rect x="723.252" y="220.264" width="35" height="32" transform="rotate(-54 723.252 220.264)" fill="#C9CBCD"/>
<path d="M773 205.5L746 189.5L738.5 200L769.5 211L773 205.5Z" fill="#485287" stroke="#485287"/>
<rect x="730.22" y="182.997" width="64" height="64" rx="8" transform="rotate(-54 730.22 182.997)" fill="#F26121"/>
<path opacity="0.25" d="M792 152H756C760.645 145.846 765.697 134.635 771 137C775.484 139 785.032 145.846 792 152Z" fill="white" stroke="white"/>
<rect x="256.635" y="192.063" width="35" height="32" transform="rotate(52 256.635 192.063)" fill="#C9CBCD"/>
<path d="M262.5 200L231 212L255 189.5L262.5 200Z" fill="#485287" stroke="#485287"/>
<path d="M224.129 136.925C227.61 134.205 232.638 134.822 235.358 138.304L264.91 176.129C267.63 179.61 267.013 184.638 263.531 187.358L225.706 216.91C222.225 219.63 217.197 219.013 214.477 215.531L184.925 177.706C182.205 174.225 182.822 169.197 186.304 166.477L224.129 136.925Z" fill="#F26121"/>
<path opacity="0.25" d="M243 153H208C214.5 147 225 138 229 137.5C234 137.5 239 146.5 243 153Z" fill="white" stroke="white"/>
<circle cx="500" cy="549" r="400" fill="#485287"/>
<ellipse cx="501.5" cy="550" rx="373.5" ry="375" fill="#292F36"/>
<circle cx="500" cy="549" r="350" fill="white"/>
<path opacity="0.05" d="M500 550L664 706.5" stroke="black" stroke-width="40" stroke-linecap="round"/>
<path d="M687 692L500 549" stroke="#F26121" stroke-width="40" stroke-linecap="round"/>
<path d="M673.5 706.5L505.5 578L519.5 565L701.5 705C701.5 705 700.938 705.68 700 706.5C699.421 707.006 698.573 707.618 698 708C697.427 708.382 696.517 708.988 695.5 709.5C694.01 710.251 693.121 710.604 691.5 711C689.594 711.466 688.461 711.583 686.5 711.5C685.121 711.442 684.351 711.287 683 711C681.609 710.705 680.828 710.506 679.5 710C676.965 709.034 673.5 706.5 673.5 706.5Z" fill="#AC413C"/>
<path d="M701.5 705L519.5 565L505.5 578L673.5 706.5C673.5 706.5 676.965 709.034 679.5 710C680.828 710.506 681.609 710.705 683 711C684.351 711.287 685.121 711.442 686.5 711.5C688.461 711.583 689.594 711.466 691.5 711C693.121 710.604 694.01 710.251 695.5 709.5C696.517 708.988 697.427 708.382 698 708C698.573 707.618 699.421 707.006 700 706.5M701.5 705C701.5 705 700.938 705.68 700 706.5M701.5 705L700 706.5" stroke="#AC413C"/>
<path d="M500 549V259" stroke="#485287" stroke-width="25" stroke-linecap="round"/>
<path d="M512 503V258.5C512 255.5 510.5 252 507.82 250C504.82 247.5 502.5 247 500.5 247L500 502.814L512 503Z" fill="black" stroke="black"/>
<circle cx="500" cy="549" r="50" fill="#485287"/>
<path opacity="0.25" d="M538.5 530.5L461 531C461 531 467.248 519.986 474 514.5C482 508 489.155 506.5 500 506.5C511.5 506.5 518.211 509.323 526 516C533 522 538.5 530.5 538.5 530.5Z" fill="white" stroke="white"/>
<rect x="470" y="156" width="35" height="58" transform="rotate(-90 470 156)" fill="#C9CBCD"/>
<rect x="420" y="121" width="64" height="160" rx="8" transform="rotate(-90 420 121)" fill="#F26121"/>
<path d="M528 121H470V127H528V121Z" fill="#485287"/>
<path opacity="0.25" d="M572.807 60H427.193C427.065 60 426.936 60.0252 426.819 60.0742C422.564 61.8486 422.854 64.3817 422.973 67.0004C422.998 67.5521 423.448 68 424 68H576C576.552 68 577.002 67.5521 577.028 67.0004C577.147 64.3817 577.436 61.8485 573.182 60.0742C573.064 60.0252 572.935 60 572.807 60Z" fill="white" stroke="white"/>
</svg>
