<svg width="1000" height="1000" viewBox="0 0 1000 1000" fill="none" xmlns="http://www.w3.org/2000/svg">
<g filter="url(#filter0_d_1525_21894)">
<rect x="246.087" y="50" width="508.695" height="900" rx="37.5652" fill="#3F4A82"/>
<rect x="266.652" y="70.5652" width="467.565" height="860.435" rx="24.0435" fill="black"/>
<rect x="285.217" y="89.1304" width="430.434" height="821.739" rx="12.5217" fill="#292F36"/>
<path d="M411.271 368.468L368.601 411.138C368.107 411.631 368.112 412.433 368.612 412.92L392.135 435.855C392.504 436.215 392.615 436.765 392.414 437.24L379.297 468.244C379.101 468.708 378.647 469.009 378.144 469.009H345.165C344.473 469.009 343.913 469.569 343.913 470.261V529.739C343.913 530.431 344.473 530.991 345.165 530.991H378.131C378.641 530.991 379.099 531.3 379.291 531.771L392.429 564.019C392.622 564.491 392.509 565.033 392.144 565.388L368.612 588.332C368.112 588.819 368.107 589.621 368.601 590.114L411.271 632.784C411.76 633.273 412.552 633.273 413.041 632.784L436.609 609.216C436.967 608.859 437.504 608.751 437.971 608.944L468.354 621.455C468.824 621.648 469.13 622.105 469.13 622.612V655.27C469.13 655.961 469.69 656.522 470.382 656.522H530.486C531.178 656.522 531.739 655.961 531.739 655.27V622.619C531.739 622.108 532.048 621.649 532.522 621.458L563.521 608.939C563.99 608.749 564.526 608.86 564.881 609.22L588.137 632.77C588.626 633.265 589.426 633.266 589.916 632.772L632.257 590.131C632.754 589.631 632.74 588.819 632.226 588.336L608.137 565.716C607.752 565.354 607.635 564.79 607.846 564.305L621.568 532.684C621.766 532.227 622.218 531.93 622.717 531.93H655.704C656.395 531.93 656.956 531.37 656.956 530.678V470.574C656.956 469.882 656.395 469.322 655.704 469.322H622.728C622.223 469.322 621.768 469.019 621.573 468.554L608.45 437.238C608.252 436.764 608.363 436.216 608.731 435.857L632.26 412.917C632.758 412.431 632.765 411.632 632.274 411.138L589.916 368.48C589.426 367.986 588.626 367.987 588.137 368.482L564.892 392.022C564.531 392.387 563.985 392.495 563.513 392.295L532.503 379.176C532.04 378.98 531.739 378.525 531.739 378.022V344.73C531.739 344.039 531.178 343.478 530.486 343.478H470.382C469.69 343.478 469.13 344.039 469.13 344.73V378.029C469.13 378.528 468.833 378.98 468.374 379.178L437.98 392.289C437.509 392.493 436.961 392.388 436.598 392.025L413.041 368.468C412.552 367.979 411.76 367.979 411.271 368.468Z" fill="#F89E1A" stroke="#3F4A82" stroke-width="20.0348"/>
<ellipse cx="500.748" cy="500" rx="73.5651" ry="73.5652" fill="#485287"/>
<path opacity="0.25" d="M588.324 405.231L427.9 543.196C426.735 544.198 428.05 546.012 429.365 545.217L575.58 456.754C575.85 456.591 576.048 456.332 576.135 456.028L590.344 406.526C590.687 405.331 589.267 404.42 588.324 405.231Z" fill="white"/>
<ellipse cx="500.434" cy="499.687" rx="53.2173" ry="53.2174" fill="#292F36"/>
<path d="M480.4 479.652L461.268 498.085C460.769 498.565 460.755 499.358 461.235 499.856L480.4 519.722" stroke="white" stroke-width="10.0174" stroke-linecap="round"/>
<path d="M505.13 479.026L496.679 519.722" stroke="white" stroke-width="10.0174" stroke-linecap="round"/>
<path d="M520.47 519.095L539.602 500.663C540.1 500.183 540.115 499.39 539.634 498.892L520.47 479.026" stroke="white" stroke-width="10.0174" stroke-linecap="round"/>
<path opacity="0.25" d="M361.058 117.728L316.122 158.2C314.725 159.458 312.703 157.636 313.809 156.116L343.27 115.644C343.565 115.239 344.035 115 344.536 115H360.01C361.444 115 362.123 116.768 361.058 117.728Z" fill="#F3F5F7"/>
<path opacity="0.25" d="M425.567 111.841L308.565 194.983C306.998 196.097 305.191 193.95 306.556 192.596L390.368 109.454C390.661 109.163 391.058 109 391.471 109H424.66C426.185 109 426.81 110.958 425.567 111.841Z" fill="#F3F5F7"/>
<path opacity="0.25" d="M680.764 867.138L626.576 888.026C624.806 888.708 623.574 886.244 625.183 885.238L688.151 845.884C689.477 845.054 691.066 846.47 690.394 847.883L681.615 866.349C681.443 866.711 681.138 866.994 680.764 867.138Z" fill="#F3F5F7"/>
<path opacity="0.25" d="M684.004 830.131L594.157 889.54C592.543 890.607 590.808 888.37 592.245 887.073L693.521 795.597C694.728 794.507 696.591 795.752 696.045 797.284L684.615 829.351C684.501 829.671 684.287 829.944 684.004 830.131Z" fill="#F3F5F7"/>
<rect x="266.652" y="70.5652" width="467.565" height="860.435" rx="24.0435" stroke="#54595E" stroke-width="2"/>
<path opacity="0.1" d="M251.383 78.2353L295.367 55.2897C296.216 54.8467 296.01 53.6247 295.059 53.5152C290.403 52.9793 281.24 52.3375 275.16 54.585C269.017 56.8561 265.984 59.4914 260.963 63.9484C257.057 67.4154 252.69 73.2523 250.153 76.8506C249.56 77.6914 250.47 78.7112 251.383 78.2353Z" fill="white"/>
<path opacity="0.25" d="M738.184 921.934L749.409 917.925C750.289 917.611 751.064 918.554 750.57 919.346C747.916 923.601 742.003 932.617 736.582 937.667C731.155 942.722 719.009 945.432 713.206 946.48C712.236 946.655 711.69 945.491 712.425 944.835L737.854 922.13C737.951 922.044 738.062 921.978 738.184 921.934Z" fill="#292F36"/>
<g clip-path="url(#clip0_1525_21894)">
<rect width="9.3913" height="97.8261" transform="translate(236.696 226.087)" fill="#F89E1A"/>
<path opacity="0.25" d="M246.8 226H236.2C236.09 226 236 226.09 236 226.2V240.8C236 240.91 236.09 241 236.2 241H246.8C246.91 241 247 240.91 247 240.8V226.2C247 226.09 246.91 226 246.8 226Z" fill="#F3F5F7"/>
<path d="M236 324H247V309L236 309V324Z" fill="#C78018"/>
</g>
<g clip-path="url(#clip1_1525_21894)">
<rect width="9.3913" height="97.8261" transform="translate(236.696 343.478)" fill="#F89E1A"/>
<path opacity="0.25" d="M246.8 343H236.2C236.09 343 236 343.09 236 343.2V357.8C236 357.91 236.09 358 236.2 358H246.8C246.91 358 247 357.91 247 357.8V343.2C247 343.09 246.91 343 246.8 343Z" fill="#F3F5F7"/>
<path d="M236 441H247V426L236 426V441Z" fill="#C78018"/>
</g>
<g clip-path="url(#clip2_1525_21894)">
<rect width="9.3913" height="136.957" transform="translate(754.782 266)" fill="#F89E1A"/>
<path opacity="0.25" d="M764.8 266H754.2C754.09 266 754 266.09 754 266.2V290.8C754 290.91 754.09 291 754.2 291H764.8C764.91 291 765 290.91 765 290.8V266.2C765 266.09 764.91 266 764.8 266Z" fill="#F3F5F7"/>
<path d="M754 403H765V378L754 378V403Z" fill="#C78018"/>
</g>
</g>
<defs>
<filter id="filter0_d_1525_21894" x="230.696" y="44" width="539.478" height="912" filterUnits="userSpaceOnUse" color-interpolation-filters="sRGB">
<feFlood flood-opacity="0" result="BackgroundImageFix"/>
<feColorMatrix in="SourceAlpha" type="matrix" values="0 0 0 0 0 0 0 0 0 0 0 0 0 0 0 0 0 0 127 0" result="hardAlpha"/>
<feOffset/>
<feGaussianBlur stdDeviation="3"/>
<feComposite in2="hardAlpha" operator="out"/>
<feColorMatrix type="matrix" values="0 0 0 0 0 0 0 0 0 0 0 0 0 0 0 0 0 0 0.1 0"/>
<feBlend mode="normal" in2="BackgroundImageFix" result="effect1_dropShadow_1525_21894"/>
<feBlend mode="normal" in="SourceGraphic" in2="effect1_dropShadow_1525_21894" result="shape"/>
</filter>
<clipPath id="clip0_1525_21894">
<rect width="9.3913" height="97.8261" fill="white" transform="translate(236.696 226.087)"/>
</clipPath>
<clipPath id="clip1_1525_21894">
<rect width="9.3913" height="97.8261" fill="white" transform="translate(236.696 343.478)"/>
</clipPath>
<clipPath id="clip2_1525_21894">
<rect width="9.3913" height="136.957" fill="white" transform="translate(754.782 266)"/>
</clipPath>
</defs>
</svg>
