<svg width="174" height="174" viewBox="0 0 174 174" fill="none" xmlns="http://www.w3.org/2000/svg">
<rect width="174" height="174" rx="8" fill="#485287"/>
<path d="M124.5 112H134.5C135.88 112 137 110.88 137 109.5V99.5002C137 98.1202 135.88 97.0001 134.5 97.0001C133.12 97.0001 132 98.1202 132 99.5002V107H124.5C123.12 107 122 108.12 122 109.5C122 110.88 123.12 112 124.5 112Z" fill="#FFCC35"/>
<path d="M125.715 117.225L106.56 112.44L104.93 105.92C110.055 100.845 113.57 93.8748 114.61 86.7198C117.45 85.9248 119.65 83.4847 120.03 80.4299L121.28 70.4298C121.545 68.3198 120.894 66.1898 119.499 64.5848C118.679 63.6447 117.644 62.9299 116.495 62.4949L116.955 53.0798L118.825 51.2097C121.64 48.2097 123.975 43.0748 119.095 35.6297C115.34 29.9051 108.97 27 100.155 27C96.6798 27 88.6649 27 81.1998 32.01C59.8949 32.4551 56.9999 42.345 56.9999 52C56.9999 54.2451 57.5449 59.3001 57.9049 62.35C56.6198 62.755 55.4549 63.5001 54.5449 64.5351C53.1248 66.145 52.4599 68.2952 52.725 70.435L53.9749 80.4351C54.3799 83.69 56.8598 86.255 59.9849 86.8651C61.0249 93.7351 64.3499 100.485 69.1799 105.475L67.4399 112.445L48.285 117.23C35.7499 120.36 27 131.575 27 144.5C27 145.88 28.1201 147 29.5001 147H144.5C145.88 147 147 145.87 147 144.49C147 131.575 138.25 120.36 125.715 117.225Z" fill="#FFCC35"/>
<path d="M124.5 31.9999H132V39.4999C132 40.8799 133.12 42 134.5 42C135.88 42 137 40.8799 137 39.4999V29.5001C136.999 28.1201 135.88 27 134.5 27H124.5C123.12 27 122 28.1201 122 29.5001C122 30.8801 123.12 31.9999 124.5 31.9999Z" fill="#FFCC35"/>
<path d="M39.4998 112H49.4999C50.8799 112 52 110.88 52 109.5C52 108.12 50.8799 107 49.4999 107H41.9999V99.5002C41.9999 98.1202 40.8798 97.0001 39.4998 97.0001C38.1198 97.0001 36.9998 98.1202 36.9998 99.5002V109.5C37 110.88 38.1198 112 39.4998 112Z" fill="#FFCC35"/>
<path d="M39.4998 42C40.8798 42 41.9999 40.8799 41.9999 39.4999V31.9999H49.4999C50.8799 31.9999 52 30.8798 52 29.4998C52 28.1198 50.8799 27 49.4999 27H39.4998C38.1198 27 36.9998 28.1201 36.9998 29.5001V39.5001C37 40.8799 38.1198 42 39.4998 42Z" fill="#FFCC35"/>
</svg>
