<svg width="64" height="64" viewBox="0 0 64 64" fill="none" xmlns="http://www.w3.org/2000/svg">
<rect width="64" height="64" rx="32" fill="#FFCC35"/>
<path d="M39.2842 45.265H24.8097C24.8097 45.265 24.8097 47.017 25.3664 48.057C26.8604 50.848 32.0469 53.648 32.0469 53.648C32.0469 53.648 37.2466 50.842 38.7275 48.057C39.2842 47.01 39.2842 45.265 39.2842 45.265Z" fill="#5AB279" stroke="black" stroke-width="0.48"/>
<path d="M32.019 46.534C41.9176 46.534 49.942 38.5096 49.942 28.611C49.942 18.7124 41.9176 10.688 32.019 10.688C22.1204 10.688 14.0959 18.7124 14.0959 28.611C14.0959 38.5096 22.1204 46.534 32.019 46.534Z" fill="#5AB279" stroke="#292F36" stroke-width="0.48"/>
<path d="M32.019 42.5825C39.7353 42.5825 45.9906 36.3272 45.9906 28.611C45.9906 20.8947 39.7353 14.6394 32.019 14.6394C24.3028 14.6394 18.0475 20.8947 18.0475 28.611C18.0475 36.3272 24.3028 42.5825 32.019 42.5825Z" fill="#292F36"/>
<path d="M31.991 41.856C39.3214 41.856 45.2639 35.9135 45.2639 28.583C45.2639 21.2526 39.3214 15.3101 31.991 15.3101C24.6605 15.3101 18.718 21.2526 18.718 28.583C18.718 35.9135 24.6605 41.856 31.991 41.856Z" fill="white"/>
<g filter="url(#filter0_d_1217_20887)">
<path d="M24.1994 27.0321C23.3378 27.0321 22.6394 27.7305 22.6394 28.5921C22.6394 29.4537 23.3378 30.1521 24.1994 30.1521H39.7994C40.661 30.1521 41.3594 29.4537 41.3594 28.5921C41.3594 27.7305 40.661 27.0321 39.7994 27.0321H24.1994Z" fill="#5AB279" stroke="black" stroke-width="0.48"/>
<path d="M23.6325 28.592H40.3556C40.6407 28.592 40.8217 28.8911 40.6504 29.1189C40.6067 29.1771 40.5603 29.2334 40.5126 29.2839C40.2831 29.5267 39.9539 29.6178 39.8507 29.6413C39.8292 29.6462 39.8073 29.648 39.7853 29.648H24.0268C23.9878 29.648 23.9489 29.6421 23.9134 29.6257C23.8433 29.5933 23.7106 29.5205 23.5436 29.3749C23.4553 29.298 23.3782 29.1834 23.3148 29.0656C23.1934 28.8399 23.3761 28.592 23.6325 28.592Z" fill="#3F7C55"/>
<path d="M33.5595 20.7921C33.5595 19.9305 32.861 19.2321 31.9995 19.2321C31.1379 19.2321 30.4395 19.9305 30.4395 20.7921V36.3921C30.4395 37.2536 31.1379 37.9521 31.9995 37.9521C32.861 37.9521 33.5595 37.2536 33.5595 36.3921V20.7921Z" fill="#5AB279" stroke="#292F36" stroke-width="0.48"/>
<path d="M32.0474 36.9521V20.2491C32.0474 19.9608 32.3526 19.7804 32.5765 19.962C32.6226 19.9995 32.6672 20.0387 32.7078 20.0789C32.9406 20.3094 33.0272 20.6405 33.0492 20.7422C33.0537 20.7628 33.0554 20.7837 33.0554 20.8047V36.5672C33.0554 36.6046 33.0499 36.6418 33.0349 36.6761C33.0044 36.7456 32.9349 36.8793 32.7947 37.0479C32.7263 37.1301 32.6268 37.2026 32.5226 37.2634C32.2995 37.3936 32.0474 37.2105 32.0474 36.9521Z" fill="#3F7C55"/>
</g>
<path opacity="0.5" d="M35.2191 48.7082C36.3925 47.3645 38.5577 45.7122 38.5577 45.7122C38.5577 45.7122 37.9508 48.028 37.1047 48.9256C36.2585 49.8233 32.5779 52.642 32.5779 52.642C32.5779 52.642 34.0056 50.0979 35.2191 48.7082Z" fill="white"/>
<path opacity="0.5" d="M22.5742 13.9408C25.8435 11.6495 30.3424 11.2024 30.3424 11.2024C30.3424 11.2024 25.9499 13.1456 23.3566 14.7791C20.7933 16.3937 17.1812 19.4735 17.1812 19.4735C17.1812 19.4735 19.3977 16.167 22.5742 13.9408Z" fill="white"/>
<defs>
<filter id="filter0_d_1217_20887" x="22.2074" y="18.9921" width="19.584" height="19.584" filterUnits="userSpaceOnUse" color-interpolation-filters="sRGB">
<feFlood flood-opacity="0" result="BackgroundImageFix"/>
<feColorMatrix in="SourceAlpha" type="matrix" values="0 0 0 0 0 0 0 0 0 0 0 0 0 0 0 0 0 0 127 0" result="hardAlpha"/>
<feOffset dy="0.192"/>
<feGaussianBlur stdDeviation="0.096"/>
<feComposite in2="hardAlpha" operator="out"/>
<feColorMatrix type="matrix" values="0 0 0 0 0 0 0 0 0 0 0 0 0 0 0 0 0 0 0.25 0"/>
<feBlend mode="normal" in2="BackgroundImageFix" result="effect1_dropShadow_1217_20887"/>
<feBlend mode="normal" in="SourceGraphic" in2="effect1_dropShadow_1217_20887" result="shape"/>
</filter>
</defs>
</svg>
