<svg width="24" height="24" viewBox="0 0 24 24" fill="none" xmlns="http://www.w3.org/2000/svg">
<path d="M7.38 2.99001C7.49611 2.8736 7.63405 2.78124 7.78591 2.71823C7.93778 2.65521 8.10058 2.62277 8.265 2.62277C8.42942 2.62277 8.59222 2.65521 8.74408 2.71823C8.89594 2.78124 9.03388 2.8736 9.15 2.99001L17.46 11.3C17.5527 11.3925 17.6262 11.5024 17.6764 11.6234C17.7266 11.7444 17.7524 11.874 17.7524 12.005C17.7524 12.136 17.7266 12.2657 17.6764 12.3866C17.6262 12.5076 17.5527 12.6175 17.46 12.71L9.15 21.02C8.66 21.51 7.87 21.51 7.38 21.02C6.89 20.53 6.89 19.74 7.38 19.25L14.62 12L7.37 4.75001C6.89 4.27001 6.89 3.47001 7.38 2.99001Z" fill="black"/>
</svg>
