<svg width="24" height="24" viewBox="0 0 24 24" fill="none" xmlns="http://www.w3.org/2000/svg">
<path d="M8.99999 16.17L5.52999 12.7C5.34302 12.513 5.08942 12.408 4.82499 12.408C4.56057 12.408 4.30697 12.513 4.11999 12.7C3.93302 12.887 3.82797 13.1406 3.82797 13.405C3.82797 13.5359 3.85376 13.6656 3.90387 13.7865C3.95397 13.9075 4.02741 14.0174 4.11999 14.11L8.29999 18.29C8.68999 18.68 9.31999 18.68 9.70999 18.29L20.29 7.71C20.477 7.52302 20.582 7.26943 20.582 7.005C20.582 6.74057 20.477 6.48698 20.29 6.3C20.103 6.11302 19.8494 6.00798 19.585 6.00798C19.3206 6.00798 19.067 6.11302 18.88 6.3L8.99999 16.17Z" fill="black"/>
</svg>
