<svg width="78" height="72" viewBox="0 0 78 72" fill="none" xmlns="http://www.w3.org/2000/svg">
<rect x="7" y="4" width="64" height="64" rx="32" fill="#F89E1A"/>
<path d="M35 22.6666H47C48.4666 22.6666 49.6666 23.8666 49.6666 25.3333V46.6666C49.6666 48.1333 48.4666 49.3333 47 49.3333H35C33.5333 49.3333 32.3333 48.1333 32.3333 46.6666V45.3333C32.3333 44.9797 32.4738 44.6405 32.7238 44.3905C32.9739 44.1404 33.313 44 33.6666 44C34.0203 44 34.3594 44.1404 34.6095 44.3905C34.8595 44.6405 35 44.9797 35 45.3333V46.6666H47V25.3333H35V26.6666C35 27.0202 34.8595 27.3594 34.6095 27.6094C34.3594 27.8595 34.0203 28 33.6666 28C33.313 28 32.9739 27.8595 32.7238 27.6094C32.4738 27.3594 32.3333 27.0202 32.3333 26.6666V25.3333C32.3333 23.8666 33.5333 22.6666 35 22.6666Z" fill="white"/>
<path d="M37.3933 41.7267C37.9133 42.2467 38.7533 42.2467 39.2733 41.7267L44.0573 36.9427C44.3073 36.6927 44.4477 36.3536 44.4477 36C44.4477 35.6465 44.3073 35.3074 44.0573 35.0574L39.2733 30.2734C39.0199 30.0443 38.6881 29.9214 38.3466 29.93C38.005 29.9386 37.6799 30.0781 37.4383 30.3197C37.1967 30.5613 37.0572 30.8864 37.0486 31.228C37.04 31.5695 37.1629 31.9013 37.392 32.1547L39.8933 34.6667H28.3333C27.9797 34.6667 27.6406 34.8072 27.3905 35.0572C27.1405 35.3073 27 35.6464 27 36C27 36.3537 27.1405 36.6928 27.3905 36.9429C27.6406 37.1929 27.9797 37.3334 28.3333 37.3334H39.8933L37.392 39.8454C37.1431 40.0953 37.0035 40.4336 37.0037 40.7863C37.004 41.139 37.1441 41.4772 37.3933 41.7267Z" fill="white"/>
</svg>
