<svg width="16" height="16" viewBox="0 0 16 16" fill="none" xmlns="http://www.w3.org/2000/svg">
<path d="M2.74 1.69301C2.67827 1.63129 2.605 1.58233 2.52436 1.54892C2.44371 1.51552 2.35728 1.49833 2.26999 1.49833C2.18271 1.49833 2.09628 1.51552 2.01563 1.54892C1.93499 1.58233 1.86172 1.63129 1.79999 1.69301C1.67534 1.81766 1.60531 1.98672 1.60531 2.16301C1.60531 2.33929 1.67534 2.50836 1.79999 2.63301L3.15999 3.99967H2.66666C1.92666 3.99967 1.33999 4.59301 1.33999 5.33301L1.33333 12.6663C1.33333 13.4063 1.92666 13.9997 2.66666 13.9997H13.16L14.02 14.8597C14.0817 14.9214 14.155 14.9704 14.2356 15.0038C14.3163 15.0372 14.4027 15.0544 14.49 15.0544C14.5773 15.0544 14.6637 15.0372 14.7444 15.0038C14.825 14.9704 14.8983 14.9214 14.96 14.8597C15.0217 14.798 15.0707 14.7247 15.1041 14.644C15.1375 14.5634 15.1547 14.477 15.1547 14.3897C15.1547 14.3024 15.1375 14.216 15.1041 14.1353C15.0707 14.0547 15.0217 13.9814 14.96 13.9197L2.74 1.69301ZM6.66666 2.66634H9.33333V3.99967H6.93333L14.6667 11.733V5.33301C14.6667 4.59301 14.0733 3.99967 13.3333 3.99967H10.6667V2.66634C10.6667 1.92634 10.0733 1.33301 9.33333 1.33301H6.66666C6.00666 1.33301 5.46666 1.79967 5.36 2.42634L6.66666 3.73301V2.66634Z" fill="white"/>
</svg>
