<svg width="25" height="24" viewBox="0 0 25 24" fill="none" xmlns="http://www.w3.org/2000/svg">
<path d="M12.25 22C13.35 22 14.25 21.1 14.25 20H10.25C10.25 20.5304 10.4607 21.0391 10.8358 21.4142C11.2109 21.7893 11.7196 22 12.25 22ZM18.25 16V11C18.25 7.93 16.61 5.36 13.75 4.68V4C13.75 3.17 13.08 2.5 12.25 2.5C11.42 2.5 10.75 3.17 10.75 4V4.68C7.87999 5.36 6.24999 7.92 6.24999 11V16L4.95999 17.29C4.32999 17.92 4.76999 19 5.65999 19H18.83C19.72 19 20.17 17.92 19.54 17.29L18.25 16Z" fill="#485287"/>
</svg>
