<svg width="16" height="16" viewBox="0 0 16 16" fill="none" xmlns="http://www.w3.org/2000/svg">
<path d="M8.66666 10.6667H7.33333C6.96666 10.6667 6.66666 10.3667 6.66666 10H2.00666V12.6667C2.00666 13.4 2.60666 14 3.34 14H12.6667C13.4 14 14 13.4 14 12.6667V10H9.33333C9.33333 10.3667 9.03333 10.6667 8.66666 10.6667ZM13.3333 4.66667H10.6667C10.6667 3.19333 9.47333 2 8 2C6.52666 2 5.33333 3.19333 5.33333 4.66667H2.66666C1.93333 4.66667 1.33333 5.26667 1.33333 6V8C1.33333 8.74 1.92666 9.33333 2.66666 9.33333H6.66666V8.66667C6.66666 8.3 6.96666 8 7.33333 8H8.66666C9.03333 8 9.33333 8.3 9.33333 8.66667V9.33333H13.3333C14.0667 9.33333 14.6667 8.73333 14.6667 8V6C14.6667 5.26667 14.0667 4.66667 13.3333 4.66667ZM6.66666 4.66667C6.66666 3.93333 7.26666 3.33333 8 3.33333C8.73333 3.33333 9.33333 3.93333 9.33333 4.66667H6.65999H6.66666Z" fill="white"/>
</svg>
