<svg width="18" height="19" viewBox="0 0 18 19" fill="none" xmlns="http://www.w3.org/2000/svg">
<path d="M11.25 11C9.2475 11 5.25 11.9975 5.25 14V15.5H17.25V14C17.25 11.9975 13.2525 11 11.25 11ZM4.5 8V5.75H3V8H0.75V9.5H3V11.75H4.5V9.5H6.75V8M11.25 9.5C12.0456 9.5 12.8087 9.18393 13.3713 8.62132C13.9339 8.05871 14.25 7.29565 14.25 6.5C14.25 5.70435 13.9339 4.94129 13.3713 4.37868C12.8087 3.81607 12.0456 3.5 11.25 3.5C10.4544 3.5 9.69129 3.81607 9.12868 4.37868C8.56607 4.94129 8.25 5.70435 8.25 6.5C8.25 7.29565 8.56607 8.05871 9.12868 8.62132C9.69129 9.18393 10.4544 9.5 11.25 9.5Z" fill="#485287"/>
</svg>
