<svg width="24" height="24" viewBox="0 0 24 24" fill="none" xmlns="http://www.w3.org/2000/svg">
<path d="M7.4 10H8.99V15C8.99 15.55 9.44 16 9.99 16H13.99C14.54 16 14.99 15.55 14.99 15V10H16.58C17.47 10 17.92 8.92001 17.29 8.29001L12.7 3.70001C12.6075 3.6073 12.4976 3.53376 12.3766 3.48357C12.2557 3.43339 12.126 3.40756 11.995 3.40756C11.864 3.40756 11.7343 3.43339 11.6134 3.48357C11.4924 3.53376 11.3825 3.6073 11.29 3.70001L6.7 8.29001C6.07 8.92001 6.51 10 7.4 10ZM5 19C5 19.55 5.45 20 6 20H18C18.55 20 19 19.55 19 19C19 18.45 18.55 18 18 18H6C5.45 18 5 18.45 5 19Z" fill="black"/>
</svg>
