<svg width="14" height="14" viewBox="0 0 14 14" fill="none" xmlns="http://www.w3.org/2000/svg">
<path d="M7.00004 3.66658C7.36671 3.66658 7.66671 3.96659 7.66671 4.33325V6.99992C7.66671 7.36658 7.36671 7.66658 7.00004 7.66658C6.63337 7.66658 6.33337 7.36658 6.33337 6.99992V4.33325C6.33337 3.96659 6.63337 3.66658 7.00004 3.66658ZM6.99337 0.333252C3.31337 0.333252 0.333374 3.31992 0.333374 6.99992C0.333374 10.6799 3.31337 13.6666 6.99337 13.6666C10.68 13.6666 13.6667 10.6799 13.6667 6.99992C13.6667 3.31992 10.68 0.333252 6.99337 0.333252ZM7.00004 12.3333C4.05337 12.3333 1.66671 9.94658 1.66671 6.99992C1.66671 4.05325 4.05337 1.66659 7.00004 1.66659C9.94671 1.66659 12.3334 4.05325 12.3334 6.99992C12.3334 9.94658 9.94671 12.3333 7.00004 12.3333ZM7.66671 10.3333H6.33337V8.99992H7.66671V10.3333Z" fill="#EA5A53"/>
</svg>
