<svg width="24" height="24" viewBox="0 0 24 24" fill="none" xmlns="http://www.w3.org/2000/svg">
<path d="M4.11 2.54C4.01742 2.44742 3.90751 2.37398 3.78654 2.32387C3.66558 2.27377 3.53593 2.24798 3.405 2.24798C3.27407 2.24798 3.14442 2.27377 3.02346 2.32387C2.90249 2.37398 2.79258 2.44742 2.7 2.54C2.51302 2.72698 2.40798 2.98057 2.40798 3.245C2.40798 3.50943 2.51302 3.76302 2.7 3.95L4.74 6H4C2.89 6 2.01 6.89 2.01 8L2 19C2 20.11 2.89 21 4 21H19.74L21.03 22.29C21.1226 22.3826 21.2325 22.456 21.3535 22.5061C21.4744 22.5562 21.6041 22.582 21.735 22.582C21.8659 22.582 21.9956 22.5562 22.1165 22.5061C22.2375 22.456 22.3474 22.3826 22.44 22.29C22.5326 22.1974 22.606 22.0875 22.6561 21.9665C22.7062 21.8456 22.732 21.7159 22.732 21.585C22.732 21.4541 22.7062 21.3244 22.6561 21.2035C22.606 21.0825 22.5326 20.9726 22.44 20.88L4.11 2.54ZM10 4H14V6H10.4L22 17.6V8C22 6.89 21.11 6 20 6H16V4C16 2.89 15.11 2 14 2H10C9.01 2 8.2 2.7 8.04 3.64L10 5.6V4Z" fill="black"/>
</svg>
